<svg width="40" height="40" viewBox="0 0 40 40" fill="none" xmlns="http://www.w3.org/2000/svg">
<path d="M18.9008 0H21.1154L21.114 0.0217734C20.6372 0.0574745 20.038 0.0173656 19.5465 0.02029C19.3017 0.0217466 19.0189 0.0700305 18.7803 0.0401048L18.9008 0Z" fill="#36CE00" fill-opacity="0.980392"/>
<path d="M18.7802 0.0401105C19.0188 0.0700362 19.3016 0.0217523 19.5465 0.0202957C20.038 0.0173713 20.6372 0.0574802 21.114 0.021779C21.4402 0.0535059 21.7677 0.0580045 22.0936 0.0881549C22.6252 0.13736 23.1648 0.22226 23.6895 0.321371C23.8318 0.347898 23.9737 0.37597 24.1154 0.405585C24.2571 0.4352 24.3984 0.466353 24.5393 0.499042C24.6803 0.531732 24.8209 0.565952 24.9612 0.6017C25.1014 0.637449 25.2412 0.674718 25.3806 0.713509C25.5201 0.752299 25.659 0.7926 25.7976 0.834412C25.9361 0.87623 26.0742 0.919547 26.2118 0.964365C26.3494 1.00918 26.4864 1.05549 26.6231 1.10329C26.7597 1.15109 26.8957 1.20037 27.0313 1.25113C27.1667 1.30189 27.3017 1.35412 27.4361 1.40782C27.5705 1.46151 27.7043 1.51666 27.8374 1.57327C27.9706 1.62988 28.1032 1.68792 28.2351 1.74742C28.367 1.80691 28.4983 1.86783 28.6288 1.93017C28.7595 1.99252 28.8894 2.05628 29.0185 2.12145C29.1477 2.18662 29.2762 2.25319 29.404 2.32116C29.5318 2.38913 29.6588 2.45847 29.785 2.5292C29.9113 2.59994 30.0367 2.67203 30.1614 2.74549C30.2861 2.81895 30.41 2.89376 30.5331 2.96991C30.6561 3.04607 30.7783 3.12355 30.8997 3.20237C31.021 3.28118 31.1415 3.3613 31.2612 3.44274C31.3808 3.52417 31.4995 3.6069 31.6173 3.69092C31.7352 3.77494 31.8521 3.86022 31.9681 3.94679C32.084 4.03335 32.199 4.12116 32.3131 4.21022C32.4271 4.29929 32.5402 4.38958 32.6523 4.48111C32.7644 4.57263 32.8755 4.66536 32.9856 4.7593C33.0957 4.85324 33.2047 4.94837 33.3127 5.04468C33.4207 5.14099 33.5276 5.23847 33.6335 5.33711C33.7395 5.43575 33.8443 5.53553 33.948 5.63644C34.0517 5.73737 34.1543 5.8394 34.2558 5.94255C34.3573 6.0457 34.4577 6.14995 34.5569 6.25528C34.6561 6.36062 34.7542 6.46702 34.8511 6.57448C34.948 6.68196 35.0438 6.79047 35.1383 6.90001C35.2329 7.00957 35.3262 7.12013 35.4184 7.23172C35.5498 7.3896 35.6788 7.54948 35.8054 7.71136C35.9319 7.87322 36.0559 8.03701 36.1774 8.20274C36.2988 8.36847 36.4177 8.53605 36.5339 8.70547C36.6502 8.87485 36.7638 9.046 36.8748 9.21891C36.9857 9.39183 37.094 9.56644 37.1995 9.74274C37.3051 9.91899 37.4079 10.0969 37.5079 10.2763C37.6079 10.4558 37.7052 10.6368 37.7996 10.8192C37.894 11.0017 37.9856 11.1856 38.0744 11.3709C38.1631 11.5563 38.249 11.7429 38.332 11.9309C38.4149 12.1188 38.4949 12.308 38.572 12.4984C38.6491 12.6889 38.7232 12.8805 38.7944 13.0733C38.8655 13.266 38.9337 13.4598 38.9988 13.6547C39.064 13.8495 39.1261 14.0453 39.1852 14.2421C39.2443 14.4389 39.3003 14.6365 39.3533 14.8351C39.4063 15.0336 39.4561 15.2329 39.5029 15.433C39.5497 15.633 39.5933 15.8338 39.6339 16.0352C39.764 16.6855 39.8454 17.3416 39.9186 18C39.9476 18.2604 39.9167 18.5728 39.9999 18.8202V21.1646C39.998 21.1707 39.9958 21.1768 39.994 21.1829C39.9288 21.399 39.9419 21.6696 39.9274 21.8957C39.9145 22.081 39.8958 22.2656 39.8712 22.4497C39.7658 23.3597 39.594 24.2569 39.3556 25.1414C39.3118 25.3053 39.2658 25.4687 39.2178 25.6314C39.1698 25.7942 39.1197 25.9563 39.0676 26.1177C39.0154 26.2793 38.9613 26.4401 38.9051 26.6002C38.8489 26.7603 38.7907 26.9196 38.7305 27.0783C38.6702 27.2369 38.608 27.3948 38.5438 27.5518C38.4795 27.7089 38.4133 27.8651 38.3452 28.0205C38.2769 28.1759 38.2068 28.3304 38.1347 28.484C38.0626 28.6376 37.9885 28.7902 37.9126 28.942C37.8366 29.0937 37.7587 29.2444 37.6789 29.3942C37.5991 29.544 37.5175 29.6927 37.4339 29.8404C37.3504 29.9881 37.265 30.1346 37.1777 30.2802C37.0904 30.4257 37.0013 30.5701 36.9104 30.7134C36.8195 30.8566 36.7267 30.9988 36.6322 31.1397C36.5377 31.2806 36.4414 31.4203 36.3433 31.5588C36.2452 31.6972 36.1454 31.8345 36.0438 31.9704C35.9423 32.1063 35.8391 32.241 35.7341 32.3743C35.6291 32.5076 35.5225 32.6396 35.4142 32.7703C35.3059 32.9009 35.196 33.0302 35.0845 33.158C34.9728 33.2858 34.8597 33.4123 34.7449 33.5373C34.6301 33.6622 34.5138 33.7857 34.3959 33.9077C34.2779 34.0298 34.1585 34.1503 34.0376 34.2693C33.9166 34.3883 33.7942 34.5058 33.6702 34.6217C33.5463 34.7376 33.421 34.8519 33.2941 34.9647C33.1673 35.0774 33.039 35.1885 32.9094 35.298C32.7797 35.4075 32.6488 35.5153 32.5164 35.6214C32.384 35.7276 32.2503 35.8321 32.1153 35.9348C31.9803 36.0376 31.844 36.1387 31.7064 36.238C31.5688 36.3373 31.43 36.4349 31.2899 36.5307C31.1499 36.6265 31.0086 36.7205 30.8662 36.8127C30.7238 36.905 30.5802 36.9954 30.4355 37.084C30.2907 37.1726 30.1449 37.2593 29.998 37.3442C29.851 37.4291 29.7031 37.5121 29.5541 37.5933C29.3122 37.7252 29.0677 37.8519 28.8206 37.9735C28.5734 38.0952 28.3239 38.2116 28.0719 38.3229C27.8199 38.4341 27.5657 38.54 27.3092 38.6406C27.0528 38.7413 26.7944 38.8365 26.534 38.9263C26.2736 39.0161 26.0114 39.1004 25.7475 39.1793C25.4836 39.2582 25.2182 39.3316 24.9512 39.3994C24.6842 39.4671 24.4159 39.5293 24.1463 39.5859C23.8768 39.6425 23.6061 39.6934 23.3344 39.7388C22.9104 39.806 22.485 39.8625 22.0582 39.9081C21.8084 39.9341 21.4691 39.9152 21.2398 40H18.7811C18.6296 39.9348 17.7264 39.8827 17.4956 39.8523C17.0017 39.7896 16.5107 39.709 16.0227 39.6104C15.8164 39.5691 15.6109 39.5246 15.406 39.4769C15.2012 39.4291 14.9971 39.3781 14.7939 39.3239C14.5907 39.2696 14.3884 39.2122 14.187 39.1515C13.9856 39.0908 13.7853 39.027 13.5859 38.9599C13.3866 38.8928 13.1883 38.8226 12.9912 38.7493C12.794 38.6759 12.5981 38.5994 12.4034 38.5198C12.2088 38.4403 12.0154 38.3576 11.8233 38.2719C11.6313 38.1862 11.4406 38.0974 11.2513 38.0056C11.0621 37.9138 10.8744 37.819 10.6881 37.7213C10.5019 37.6235 10.3172 37.5228 10.1342 37.4191C9.9512 37.3155 9.76987 37.209 9.59024 37.0996C9.4106 36.9902 9.23274 36.8779 9.05665 36.7629C8.88055 36.6478 8.70636 36.53 8.53407 36.4094C8.36172 36.2888 8.19136 36.1655 8.02297 36.0395C7.85455 35.9135 7.68818 35.7848 7.52386 35.6535C7.35955 35.5222 7.19736 35.3883 7.0373 35.2519C6.92684 35.1582 6.81741 35.0633 6.70901 34.9672C6.60061 34.8711 6.49327 34.7738 6.38697 34.6754C6.28069 34.577 6.17548 34.4775 6.07136 34.3767C5.96723 34.276 5.86421 34.1742 5.76229 34.0713C5.66038 33.9683 5.5596 33.8643 5.45994 33.7591C5.36029 33.654 5.26178 33.5478 5.16443 33.4406C5.06709 33.3333 4.97091 33.225 4.87592 33.1156C4.78092 33.0063 4.68713 32.8959 4.59453 32.7845C4.50193 32.6731 4.41055 32.5607 4.32039 32.4473C4.23023 32.334 4.14132 32.2196 4.05364 32.1043C3.96597 31.989 3.87956 31.8727 3.7944 31.7556C3.70925 31.6384 3.62538 31.5203 3.54279 31.4013C3.46021 31.2822 3.37893 31.1624 3.29894 31.0416C3.21896 30.9209 3.14031 30.7992 3.06297 30.6767C2.98562 30.5542 2.90962 30.4309 2.83496 30.3068C2.7603 30.1827 2.68699 30.0578 2.61504 29.932C2.54309 29.8063 2.47252 29.6798 2.40332 29.5526C2.33411 29.4253 2.2663 29.2973 2.19988 29.1686C2.13346 29.0398 2.06844 28.9104 2.00483 28.7802C1.94122 28.6501 1.87903 28.5193 1.81826 28.3878C1.75748 28.2563 1.69815 28.1242 1.64025 27.9914C1.58235 27.8586 1.5259 27.7252 1.4709 27.5912C1.41589 27.4572 1.36235 27.3226 1.31026 27.1874C1.25819 27.0523 1.20758 26.9166 1.15844 26.7803C1.10931 26.644 1.06167 26.5072 1.01551 26.3699C0.969339 26.2326 0.924672 26.0948 0.881505 25.9566C0.838333 25.8183 0.79667 25.6796 0.756514 25.5404C0.716357 25.4012 0.677716 25.2616 0.64059 25.1216C0.603465 24.9816 0.567865 24.8412 0.533789 24.7004C0.499713 24.5596 0.467169 24.4185 0.436158 24.277C0.405148 24.1354 0.375677 23.9936 0.347747 23.8515C0.319816 23.7094 0.293432 23.5669 0.268594 23.4242C0.13878 22.6857 0.0866006 21.9564 0.0228734 21.2109C0.0487571 20.7879 0.0197128 20.3457 0.0197755 19.9209C0.0198303 19.5495 0.0506312 19.1561 0.0211035 18.7871C0.0705252 18.4373 0.0720316 18.0748 0.107493 17.7223C0.166558 17.1352 0.26516 16.5465 0.383918 15.9682C0.41119 15.8364 0.439779 15.705 0.469684 15.5738C0.499589 15.4426 0.530804 15.3118 0.563329 15.1812C0.595854 15.0506 0.629683 14.9204 0.664816 14.7905C0.699949 14.6606 0.736378 14.5311 0.774104 14.402C0.81183 14.2728 0.850844 14.144 0.891146 14.0156C0.931453 13.8872 0.973039 13.7593 1.0159 13.6317C1.05877 13.5042 1.10291 13.3771 1.14832 13.2505C1.19373 13.1238 1.2404 12.9976 1.28834 12.8719C1.33628 12.7462 1.38547 12.6209 1.43591 12.4962C1.48635 12.3714 1.53804 12.2472 1.59097 12.1235C1.64391 11.9998 1.69807 11.8767 1.75347 11.7541C1.80887 11.6314 1.86549 11.5094 1.92333 11.3879C1.98117 11.2664 2.04022 11.1455 2.10048 11.0252C2.16075 10.9049 2.22221 10.7852 2.28486 10.6662C2.34752 10.5471 2.41136 10.4286 2.4764 10.3109C2.54143 10.1931 2.60763 10.0759 2.67501 9.95946C2.74238 9.843 2.81091 9.72722 2.88061 9.61212C2.9503 9.49701 3.02114 9.38261 3.09312 9.26891C3.1651 9.15527 3.23821 9.04232 3.31246 8.93008C3.3867 8.8179 3.46207 8.70644 3.53854 8.59571C3.61502 8.48498 3.69259 8.37506 3.77127 8.26594C3.84995 8.15678 3.92971 8.04842 4.01056 7.94087C4.0914 7.83331 4.17332 7.72657 4.2563 7.62065C4.33929 7.51474 4.42332 7.40966 4.50841 7.30543C4.5935 7.20119 4.67962 7.09782 4.76678 6.99532C4.85394 6.89281 4.94211 6.79118 5.0313 6.69044C5.1205 6.5897 5.21069 6.48986 5.30188 6.39092C5.39307 6.29198 5.48524 6.19397 5.5784 6.09687C5.67155 5.99978 5.76566 5.90363 5.86074 5.80842C5.95582 5.71322 6.05184 5.61897 6.14881 5.52569C6.24577 5.4324 6.34366 5.34009 6.44247 5.24877C6.54129 5.15744 6.64101 5.06711 6.74163 4.97779C6.91537 4.82387 7.09177 4.67307 7.27082 4.52537C7.44987 4.37768 7.63148 4.23317 7.81563 4.09187C7.9998 3.95058 8.18639 3.81257 8.3754 3.67785C8.56441 3.54313 8.75571 3.41177 8.9493 3.28379C9.14295 3.15582 9.33878 3.03129 9.5368 2.91021C9.73487 2.78913 9.93498 2.67158 10.1371 2.55755C10.3393 2.44353 10.5434 2.3331 10.7495 2.22626C10.9556 2.11944 11.1634 2.01627 11.3731 1.91676C11.5828 1.81725 11.7942 1.72147 12.0073 1.62941C12.2203 1.53736 12.435 1.44909 12.6512 1.36459C12.8674 1.2801 13.085 1.19944 13.304 1.12262C13.5231 1.04579 13.7434 0.972852 13.9649 0.903795C14.1865 0.834737 14.4093 0.769604 14.6332 0.708394C14.8571 0.647185 15.082 0.58994 15.3079 0.536657C15.5338 0.483374 15.7606 0.434088 15.9882 0.388797C16.2159 0.343507 16.4442 0.302241 16.6734 0.264999C17.2394 0.171514 17.7891 0.101323 18.3616 0.0668164C18.501 0.0584144 18.6404 0.0320928 18.7802 0.0401105ZM19.2115 9.10985C18.4325 9.16415 17.6682 9.24751 16.9021 9.40227C14.1877 9.95071 11.5403 11.2762 9.70751 13.3869C8.18329 15.1421 7.36374 17.3246 7.52794 19.6573C7.69756 22.0668 9.02407 24.2108 10.8203 25.7659C12.4818 27.2043 14.6202 28.1877 16.7661 28.632C17.0358 28.6885 17.3068 28.738 17.5791 28.7804C17.9122 28.8313 18.329 28.827 18.6328 28.9816C18.8295 29.0816 18.9345 29.2948 18.954 29.5072C18.977 29.7576 18.9217 30.0313 18.8932 30.2809L18.7531 31.4898C18.7279 31.7048 18.6818 31.9373 18.7136 32.153C18.7373 32.3137 18.8095 32.4665 18.9352 32.5723C19.0735 32.6887 19.2702 32.747 19.4493 32.7234C19.7114 32.689 19.9702 32.5243 20.202 32.4047C23.6161 30.7115 27.1212 28.5006 29.6098 25.589C29.9623 25.1766 30.2799 24.7345 30.5942 24.2927C31.2287 23.4008 31.733 22.6265 32.0831 21.5839C32.104 21.5208 32.1242 21.4575 32.1436 21.3939C32.163 21.3303 32.1816 21.2665 32.1995 21.2024C32.2173 21.1384 32.2343 21.0741 32.2506 21.0097C32.2668 20.9452 32.2822 20.8806 32.2969 20.8157C32.3115 20.7508 32.3253 20.6858 32.3384 20.6206C32.3514 20.5554 32.3637 20.4901 32.3751 20.4246C32.3865 20.3591 32.3972 20.2935 32.407 20.2277C32.4167 20.162 32.4257 20.0961 32.4339 20.0301C32.4421 19.9641 32.4495 19.898 32.456 19.8319C32.4626 19.7657 32.4683 19.6995 32.4732 19.6332C32.4782 19.5669 32.4823 19.5006 32.4856 19.4341C32.4888 19.3677 32.4913 19.3013 32.4929 19.2348C32.4945 19.1684 32.4953 19.1019 32.4953 19.0354C32.4953 18.9689 32.4945 18.9025 32.4929 18.836C32.4912 18.7696 32.4888 18.7031 32.4855 18.6367C32.4822 18.5703 32.4781 18.504 32.4732 18.4377C32.4683 18.3714 32.4625 18.3051 32.4559 18.239C32.4494 18.1728 32.4421 18.1067 32.4338 18.0408C32.4257 17.9748 32.4167 17.9089 32.4069 17.8431C32.397 17.7774 32.3864 17.7118 32.375 17.6463C32.3635 17.5808 32.3513 17.5154 32.3383 17.4502C32.3253 17.385 32.3114 17.32 32.2967 17.2552C32.2821 17.1903 32.2666 17.1257 32.2504 17.0612C32.2341 16.9968 32.2171 16.9325 32.1993 16.8684C32.1815 16.8044 32.1629 16.7406 32.1434 16.677C32.124 16.6134 32.1038 16.55 32.0829 16.487C32.0619 16.4239 32.0402 16.3611 32.0177 16.2985C31.9951 16.236 31.9718 16.1737 31.9477 16.1117C31.9237 16.0497 31.8989 15.9881 31.8733 15.9267C31.8477 15.8653 31.8214 15.8043 31.7943 15.7436C31.7672 15.6829 31.7394 15.6225 31.7109 15.5624C31.6823 15.5024 31.6529 15.4428 31.6229 15.3834C30.2763 12.6759 27.6402 10.8043 24.8213 9.86454C24.596 9.79032 24.3691 9.72133 24.1406 9.65758C23.9121 9.59383 23.6822 9.53537 23.451 9.48219C23.2198 9.42902 22.9875 9.38123 22.7541 9.33883C22.5207 9.29639 22.2864 9.25935 22.0513 9.22774C21.8162 9.19607 21.5805 9.16988 21.3441 9.14915C21.1078 9.12837 20.8712 9.11305 20.6341 9.10321C20.3971 9.09337 20.16 9.08902 19.9227 9.09016C19.6855 9.09126 19.4484 9.09782 19.2115 9.10985Z" fill="#36CE00"/>
<path d="M20.2021 32.4047C19.9703 32.5243 19.7115 32.689 19.4494 32.7234C19.2703 32.7469 19.0736 32.6887 18.9353 32.5723C18.8096 32.4665 18.7374 32.3137 18.7137 32.153C18.6819 31.9373 18.728 31.7048 18.7532 31.4898L18.8933 30.2809C18.9218 30.0313 18.9771 29.7576 18.9541 29.5072C18.9346 29.2948 18.8296 29.0816 18.6329 28.9816C18.3291 28.827 17.9123 28.8312 17.5792 28.7804C17.3069 28.738 17.0359 28.6885 16.7662 28.6319C14.6203 28.1877 12.4819 27.2043 10.8204 25.7658C9.02417 24.2108 7.69766 22.0668 7.52805 19.6573C7.36384 17.3246 8.18339 15.1421 9.70761 13.3869C11.5404 11.2762 14.1878 9.95069 16.9022 9.40225C17.6683 9.24749 18.4326 9.16413 19.2116 9.10983C19.4485 9.0978 19.6856 9.09124 19.9228 9.09015C20.1601 9.089 20.3972 9.09335 20.6342 9.10319C20.8713 9.11304 21.1079 9.12835 21.3442 9.14913C21.5806 9.16986 21.8163 9.19606 22.0514 9.22772C22.2865 9.25934 22.5208 9.29637 22.7542 9.33882C22.9876 9.38121 23.2199 9.429 23.4511 9.48218C23.6823 9.53535 23.9122 9.59382 24.1407 9.65757C24.3692 9.72132 24.5961 9.7903 24.8214 9.86452C27.6403 10.8043 30.2764 12.6759 31.623 15.3834C31.6531 15.4428 31.6824 15.5024 31.711 15.5624C31.7395 15.6225 31.7673 15.6829 31.7944 15.7436C31.8215 15.8043 31.8478 15.8653 31.8734 15.9267C31.899 15.9881 31.9238 16.0497 31.9478 16.1117C31.9719 16.1737 31.9952 16.236 32.0178 16.2985C32.0403 16.3611 32.062 16.4239 32.083 16.4869C32.1039 16.55 32.1241 16.6133 32.1435 16.6769C32.163 16.7405 32.1816 16.8044 32.1994 16.8684C32.2172 16.9325 32.2342 16.9967 32.2505 17.0612C32.2667 17.1256 32.2822 17.1903 32.2968 17.2551C32.3115 17.32 32.3254 17.385 32.3384 17.4502C32.3514 17.5154 32.3637 17.5808 32.3751 17.6462C32.3865 17.7118 32.3971 17.7774 32.407 17.8431C32.4168 17.9089 32.4258 17.9748 32.4339 18.0408C32.4422 18.1067 32.4495 18.1728 32.456 18.239C32.4626 18.3051 32.4684 18.3713 32.4733 18.4376C32.4782 18.5039 32.4823 18.5703 32.4856 18.6367C32.4889 18.7031 32.4913 18.7695 32.493 18.836C32.4946 18.9025 32.4954 18.9689 32.4954 19.0354C32.4954 19.1019 32.4946 19.1684 32.493 19.2348C32.4914 19.3013 32.4889 19.3677 32.4857 19.4341C32.4824 19.5005 32.4783 19.5669 32.4733 19.6332C32.4684 19.6995 32.4627 19.7657 32.4561 19.8319C32.4496 19.898 32.4422 19.9641 32.434 20.0301C32.4258 20.0961 32.4169 20.1619 32.4071 20.2277C32.3973 20.2935 32.3866 20.3591 32.3752 20.4246C32.3638 20.4901 32.3515 20.5554 32.3385 20.6206C32.3254 20.6858 32.3116 20.7508 32.297 20.8157C32.2823 20.8805 32.2669 20.9452 32.2507 21.0097C32.2344 21.0741 32.2174 21.1383 32.1996 21.2024C32.1817 21.2665 32.1631 21.3303 32.1437 21.3939C32.1243 21.4575 32.1041 21.5208 32.0832 21.5839C31.7331 22.6265 31.2288 23.4008 30.5943 24.2926C30.28 24.7344 29.9625 25.1766 29.61 25.589C27.1213 28.5006 23.6162 30.7115 20.2021 32.4047ZM13.4075 16.2173C13.2243 16.2841 13.0666 16.3829 12.9781 16.5642C12.9339 16.6548 12.9216 16.7386 12.9154 16.8378C12.8734 17.5174 12.909 18.2633 12.9087 18.9503C12.9082 19.8325 12.8773 20.7266 12.9118 21.6076C12.9159 21.7117 12.9177 21.8212 12.9568 21.9192C13.0132 22.0601 13.1273 22.196 13.2707 22.2502C13.3715 22.2883 13.4781 22.3086 13.5853 22.3176C14.0192 22.3538 14.4775 22.3249 14.9136 22.3244C15.3472 22.3239 15.8294 22.3642 16.2574 22.2996C16.447 22.2355 16.5862 22.138 16.6764 21.9537C16.6858 21.9346 16.6942 21.915 16.7017 21.8949C16.7092 21.8749 16.7156 21.8546 16.721 21.8339C16.7265 21.8132 16.7309 21.7923 16.7342 21.7712C16.7375 21.7501 16.7397 21.7288 16.7409 21.7075C16.7421 21.6861 16.7422 21.6648 16.7412 21.6434C16.7402 21.6221 16.7382 21.6008 16.735 21.5797C16.7319 21.5585 16.7277 21.5376 16.7225 21.5169C16.7172 21.4961 16.7109 21.4757 16.7036 21.4556C16.6446 21.2931 16.5246 21.1682 16.3663 21.0992C16.0983 20.9824 14.5999 21.0364 14.1827 21.0358L14.1845 18.1162C14.1847 17.7231 14.2268 17.0506 14.1598 16.6851C14.1392 16.5731 14.0825 16.4735 14.0013 16.3942C13.8725 16.2687 13.6859 16.2024 13.5073 16.2104C13.474 16.212 13.4408 16.2144 13.4075 16.2173ZM17.775 16.2156C17.6263 16.2581 17.4942 16.3243 17.4164 16.4651C17.365 16.558 17.3605 16.6719 17.3545 16.776C17.3372 17.0709 17.3472 17.3711 17.3471 17.6666L17.3468 19.1657L17.3475 20.8037C17.3478 21.0985 17.3378 21.3976 17.3526 21.6919C17.3582 21.8035 17.3678 21.9504 17.4068 22.0552C17.4438 22.1545 17.5635 22.2391 17.6592 22.2757C17.8335 22.3422 18.0375 22.3237 18.22 22.3084C18.3691 22.2712 18.4861 22.2004 18.566 22.0654C18.6075 21.9951 18.6218 21.9298 18.628 21.8487C18.6508 21.545 18.6355 21.2304 18.6356 20.9257L18.6358 19.2165L18.6354 17.6498C18.6353 17.2823 18.6481 16.9124 18.6099 16.5467C18.6009 16.4608 18.5145 16.3754 18.4487 16.3251C18.255 16.1771 18.0032 16.208 17.775 16.2156ZM20.1239 16.2166C19.9252 16.2784 19.7586 16.3812 19.661 16.5722C19.6147 16.6626 19.6005 16.7427 19.5943 16.8436C19.5742 17.1744 19.5873 17.512 19.5873 17.8437L19.5875 19.6124L19.5878 20.9445C19.5879 21.2348 19.5751 21.5294 19.6098 21.818C19.6271 21.9612 19.723 22.0916 19.8344 22.179C19.851 22.1921 19.8682 22.2044 19.886 22.2158C19.9039 22.2273 19.9222 22.2378 19.941 22.2474C19.9599 22.257 19.9792 22.2657 19.9989 22.2734C20.0186 22.2811 20.0386 22.2879 20.059 22.2936C20.0794 22.2993 20.1 22.304 20.1208 22.3077C20.1416 22.3114 20.1626 22.3141 20.1838 22.3157C20.2049 22.3174 20.226 22.318 20.2471 22.3175C20.2683 22.317 20.2894 22.3155 20.3104 22.313C20.3314 22.3103 20.3521 22.3066 20.3726 22.3017C20.3931 22.2969 20.4134 22.2911 20.4333 22.2841C20.4533 22.2773 20.4728 22.2693 20.4919 22.2604C20.511 22.2515 20.5296 22.2416 20.5477 22.2308C20.5658 22.2199 20.5833 22.2082 20.6002 22.1955C20.6171 22.1829 20.6332 22.1694 20.6487 22.1551C20.6642 22.1408 20.6789 22.1257 20.6928 22.1099C20.7068 22.0941 20.7199 22.0776 20.7321 22.0604C20.8057 21.9583 20.8431 21.839 20.8594 21.7152C20.9037 21.3801 20.8679 21.0105 20.8664 20.6709L20.8627 18.7369L22.6271 21.0215C22.8782 21.3461 23.2539 21.896 23.5296 22.1579C23.6185 22.2423 23.725 22.2963 23.8473 22.3106C23.9208 22.3191 23.9912 22.3131 24.0635 22.2999C24.2485 22.2359 24.3967 22.1419 24.4887 21.9632C24.5417 21.8601 24.5665 21.7427 24.5729 21.6276C24.5858 21.3958 24.5722 21.1581 24.571 20.9256L24.571 19.6358C24.5714 18.7405 24.603 17.8341 24.5714 16.9403C24.5678 16.843 24.5628 16.7365 24.5326 16.6437C24.4807 16.4843 24.3505 16.3503 24.1984 16.283C24.179 16.2743 24.1593 16.2666 24.1392 16.2598C24.1191 16.2531 24.0986 16.2473 24.0779 16.2426C24.0572 16.2379 24.0364 16.2342 24.0153 16.2316C23.9942 16.229 23.973 16.2275 23.9518 16.227C23.9306 16.2265 23.9094 16.2271 23.8882 16.2287C23.8671 16.2304 23.846 16.233 23.8251 16.2368C23.8042 16.2405 23.7836 16.2453 23.7632 16.2511C23.7427 16.2569 23.7227 16.2637 23.7029 16.2716C23.5363 16.339 23.4001 16.4705 23.3374 16.6405C23.247 16.8851 23.3028 19.3215 23.2934 19.8003C23.0405 19.5294 22.8215 19.1989 22.5955 18.9041L21.2872 17.1983C21.0835 16.9316 20.8821 16.5991 20.6314 16.3778C20.5171 16.2769 20.3889 16.2168 20.2347 16.2126C20.1978 16.2116 20.1607 16.2141 20.1239 16.2166ZM26.0942 16.2164C25.9024 16.2575 25.7488 16.3355 25.6424 16.5068C25.5717 16.6205 25.5408 16.7508 25.5312 16.883C25.4969 17.3529 25.5339 17.842 25.5327 18.3141L25.5289 20.4073C25.5287 20.8102 25.4781 21.5298 25.579 21.8929C25.6218 22.0469 25.7321 22.1659 25.8728 22.2391C25.946 22.2772 26.0202 22.3002 26.102 22.3085C26.4374 22.3426 28.775 22.3482 29.0114 22.2706C29.1675 22.2194 29.295 22.071 29.3593 21.9245C29.4246 21.7757 29.436 21.597 29.3702 21.4463C29.295 21.2743 29.166 21.1412 28.9863 21.0809C28.6905 20.9819 27.234 21.0416 26.8167 21.0355L26.8185 20.2881L26.8188 19.9024C27.2063 19.9005 27.5939 19.9009 27.9814 19.9035C28.2717 19.9055 28.6077 19.94 28.8915 19.8755C29.0024 19.8504 29.0989 19.7976 29.1796 19.7173C29.3005 19.5968 29.3763 19.4257 29.3714 19.2541C29.3706 19.2322 29.3688 19.2105 29.3659 19.1889C29.363 19.1673 29.359 19.1458 29.3539 19.1246C29.3489 19.1033 29.3428 19.0824 29.3357 19.0618C29.3286 19.0412 29.3204 19.021 29.3113 19.0012C29.3022 18.9813 29.2921 18.962 29.281 18.9432C29.27 18.9244 29.2581 18.9062 29.2452 18.8885C29.2323 18.8709 29.2186 18.8539 29.204 18.8376C29.1895 18.8214 29.1742 18.8059 29.1581 18.7912C29.0689 18.7105 28.9682 18.6694 28.851 18.6476C28.6196 18.6046 28.3659 18.6248 28.1307 18.6251C27.6929 18.6279 27.255 18.6282 26.8171 18.6262L26.8185 17.4939C27.2175 17.487 27.6166 17.4849 28.0157 17.4878C28.3099 17.4886 28.6881 17.5319 28.9732 17.4503C29.072 17.422 29.1603 17.3587 29.2293 17.2839C29.342 17.1616 29.421 16.9871 29.4126 16.8186C29.4045 16.6573 29.2856 16.45 29.1624 16.3491C29.0707 16.2738 28.9675 16.2418 28.8517 16.2252C28.5035 16.1756 28.1073 16.2106 27.7541 16.2111C27.2028 16.2119 26.6446 16.1946 26.0942 16.2164Z" fill="#FEFEFE"/>
<path d="M16.2572 22.2996C15.8293 22.3642 15.3471 22.3239 14.9135 22.3243C14.4773 22.3249 14.019 22.3538 13.5851 22.3175C13.4779 22.3086 13.3714 22.2883 13.2706 22.2502C13.1272 22.196 13.013 22.06 12.9567 21.9192C12.9176 21.8212 12.9158 21.7117 12.9117 21.6075C12.8772 20.7266 12.9081 19.8325 12.9086 18.9503C12.9089 18.2633 12.8733 17.5174 12.9153 16.8378C12.9215 16.7386 12.9337 16.6547 12.9779 16.5642C13.0665 16.3829 13.2242 16.284 13.4074 16.2173C13.4406 16.2143 13.4739 16.212 13.5072 16.2104C13.6858 16.2024 13.8723 16.2686 14.0012 16.3942C14.0824 16.4735 14.1391 16.5731 14.1597 16.6851C14.2267 17.0506 14.1846 17.7231 14.1844 18.1161L14.1826 21.0358C14.5997 21.0364 16.0982 20.9824 16.3662 21.0992C16.5244 21.1682 16.6444 21.2931 16.7035 21.4556C16.7108 21.4757 16.7171 21.4961 16.7223 21.5168C16.7275 21.5376 16.7317 21.5585 16.7349 21.5797C16.738 21.6008 16.7401 21.6221 16.7411 21.6434C16.7421 21.6648 16.742 21.6861 16.7408 21.7075C16.7396 21.7288 16.7374 21.75 16.734 21.7711C16.7308 21.7923 16.7264 21.8132 16.7209 21.8339C16.7155 21.8546 16.7091 21.8749 16.7016 21.8949C16.6941 21.9149 16.6857 21.9346 16.6762 21.9537C16.5861 22.1379 16.4469 22.2354 16.2572 22.2996Z" fill="#36CE00"/>
<path d="M18.2199 22.3085C18.0374 22.3237 17.8334 22.3422 17.6592 22.2757C17.5635 22.2392 17.4437 22.1546 17.4067 22.0553C17.3677 21.9504 17.3582 21.8035 17.3525 21.6919C17.3377 21.3976 17.3477 21.0985 17.3474 20.8038L17.3467 19.1657L17.347 17.6667C17.3471 17.3711 17.3371 17.071 17.3544 16.776C17.3604 16.6719 17.3649 16.5581 17.4164 16.4651C17.4941 16.3243 17.6262 16.2581 17.7749 16.2156C18.0032 16.2081 18.2549 16.1771 18.4486 16.3251C18.5144 16.3754 18.6008 16.4608 18.6098 16.5467C18.648 16.9124 18.6353 17.2823 18.6353 17.6498L18.6357 19.2165L18.6355 20.9257C18.6354 21.2304 18.6507 21.545 18.6279 21.8487C18.6217 21.9299 18.6074 21.9952 18.5659 22.0654C18.486 22.2004 18.369 22.2713 18.2199 22.3085Z" fill="#36CE00"/>
<path d="M20.8626 18.7369L20.8663 20.6709C20.8678 21.0105 20.9036 21.3801 20.8593 21.7152C20.843 21.839 20.8056 21.9583 20.732 22.0604C20.7198 22.0776 20.7067 22.0941 20.6927 22.1099C20.6788 22.1257 20.6641 22.1408 20.6486 22.1551C20.6331 22.1694 20.6169 22.1829 20.6001 22.1955C20.5831 22.2082 20.5656 22.2199 20.5476 22.2308C20.5295 22.2416 20.5109 22.2515 20.4918 22.2604C20.4727 22.2693 20.4531 22.2772 20.4332 22.2841C20.4132 22.2911 20.393 22.2969 20.3725 22.3017C20.352 22.3065 20.3312 22.3103 20.3103 22.313C20.2893 22.3155 20.2682 22.317 20.247 22.3175C20.2259 22.318 20.2048 22.3174 20.1837 22.3157C20.1625 22.3141 20.1415 22.3114 20.1207 22.3077C20.0999 22.304 20.0793 22.2993 20.0589 22.2936C20.0385 22.2878 20.0185 22.2811 19.9987 22.2734C19.979 22.2657 19.9598 22.257 19.9409 22.2474C19.9221 22.2378 19.9037 22.2272 19.8859 22.2158C19.8681 22.2044 19.8509 22.1921 19.8343 22.179C19.7229 22.0915 19.6269 21.9612 19.6097 21.818C19.575 21.5294 19.5878 21.2347 19.5877 20.9445L19.5873 19.6124L19.5872 17.8437C19.5872 17.512 19.5741 17.1744 19.5942 16.8436C19.6004 16.7427 19.6146 16.6626 19.6608 16.5722C19.7585 16.3812 19.9251 16.2784 20.1237 16.2165C20.1606 16.214 20.1976 16.2116 20.2346 16.2126C20.3887 16.2168 20.517 16.2769 20.6313 16.3778C20.882 16.5991 21.0833 16.9315 21.2871 17.1983L22.5954 18.9041C22.8214 19.1989 23.0404 19.5294 23.2933 19.8003C23.3027 19.3215 23.2469 16.8851 23.3373 16.6405C23.4 16.4705 23.5362 16.339 23.7028 16.2715C23.7225 16.2637 23.7426 16.2569 23.763 16.2511C23.7835 16.2453 23.8041 16.2405 23.825 16.2368C23.8459 16.233 23.867 16.2303 23.8881 16.2287C23.9093 16.2271 23.9305 16.2265 23.9517 16.227C23.9729 16.2275 23.994 16.229 24.0151 16.2316C24.0362 16.2342 24.0571 16.2379 24.0778 16.2426C24.0985 16.2473 24.1189 16.2531 24.139 16.2598C24.1592 16.2665 24.1789 16.2743 24.1983 16.283C24.3504 16.3503 24.4805 16.4843 24.5325 16.6437C24.5627 16.7365 24.5677 16.843 24.5712 16.9403C24.6029 17.834 24.5713 18.7405 24.5708 19.6358L24.5709 20.9256C24.5721 21.1581 24.5857 21.3958 24.5728 21.6276C24.5664 21.7427 24.5416 21.8601 24.4886 21.9632C24.3966 22.1419 24.2484 22.2359 24.0634 22.2999C23.9911 22.3131 23.9207 22.3191 23.8472 22.3106C23.7248 22.2963 23.6183 22.2422 23.5295 22.1579C23.2538 21.896 22.878 21.3461 22.6269 21.0215L20.8626 18.7369Z" fill="#36CE00"/>
<path d="M26.8168 21.0356C27.2341 21.0416 28.6906 20.982 28.9864 21.081C29.1661 21.1412 29.295 21.2744 29.3703 21.4464C29.436 21.5971 29.4247 21.7758 29.3594 21.9246C29.2951 22.0711 29.1676 22.2195 29.0115 22.2707C28.7751 22.3483 26.4375 22.3426 26.1021 22.3086C26.0203 22.3003 25.946 22.2772 25.8729 22.2392C25.7322 22.166 25.6219 22.0469 25.5791 21.893C25.4782 21.5298 25.5288 20.8103 25.529 20.4073L25.5328 18.3142C25.5339 17.8421 25.497 17.353 25.5313 16.8831C25.5409 16.7508 25.5717 16.6205 25.6425 16.5069C25.7489 16.3356 25.9025 16.2576 26.0943 16.2165C26.6447 16.1947 27.2029 16.2119 27.7542 16.2112C28.1074 16.2107 28.5036 16.1757 28.8517 16.2253C28.9676 16.2419 29.0707 16.2739 29.1625 16.3491C29.2857 16.4501 29.4046 16.6573 29.4127 16.8187C29.4211 16.9872 29.3421 17.1617 29.2294 17.284C29.1603 17.3588 29.0721 17.4221 28.9733 17.4504C28.6882 17.5319 28.31 17.4887 28.0157 17.4879C27.6167 17.485 27.2176 17.487 26.8185 17.494L26.8171 18.6263C27.2551 18.6283 27.6929 18.6279 28.1308 18.6252C28.366 18.6248 28.6196 18.6047 28.851 18.6477C28.9683 18.6695 29.069 18.7105 29.1582 18.7912C29.1742 18.806 29.1896 18.8215 29.2041 18.8377C29.2187 18.854 29.2324 18.871 29.2453 18.8886C29.2581 18.9062 29.2701 18.9245 29.2811 18.9433C29.2922 18.9621 29.3022 18.9814 29.3114 19.0012C29.3205 19.021 29.3286 19.0412 29.3357 19.0619C29.3429 19.0825 29.349 19.1034 29.354 19.1247C29.3591 19.1459 29.3631 19.1674 29.366 19.189C29.3689 19.2106 29.3707 19.2323 29.3714 19.2541C29.3764 19.4258 29.3006 19.5969 29.1797 19.7173C29.099 19.7977 29.0025 19.8505 28.8916 19.8756C28.6078 19.9401 28.2717 19.9055 27.9815 19.9036C27.594 19.901 27.2064 19.9006 26.8189 19.9025L26.8185 20.2882L26.8168 21.0356Z" fill="#36CE00"/>
<path d="M0 18.7806L0.0211762 18.7871C0.050704 19.1561 0.019903 19.5495 0.0198483 19.9209C0.0197856 20.3457 0.0488298 20.7879 0.0229462 21.211L0 21.2042V18.7806Z" fill="#36CE00" fill-opacity="0.988235"/>
</svg>
