<?xml version="1.0" encoding="utf-8" ?>
<svg xmlns="http://www.w3.org/2000/svg" xmlns:xlink="http://www.w3.org/1999/xlink" width="512" height="512">
	<path fill="#36CE00" fill-opacity="0.98039216" d="M241.931 0L270.278 0L270.26 0.278699C264.157 0.735674 256.487 0.22228 250.196 0.259712C247.062 0.278357 243.442 0.896391 240.388 0.513342L241.931 0Z"/>
	<path fill="#36CE00" d="M240.388 0.513342C243.442 0.896391 247.062 0.278357 250.196 0.259712C256.487 0.22228 264.157 0.735674 270.26 0.278699C274.436 0.684803 278.628 0.742385 282.799 1.12831C289.604 1.75813 296.511 2.84485 303.227 4.11348Q305.958 4.6228 308.678 5.19142Q311.398 5.76003 314.104 6.38767Q316.811 7.01532 319.504 7.70169Q322.196 8.38806 324.873 9.13284Q327.55 9.87761 330.21 10.6804Q332.87 11.4833 335.512 12.3438Q338.153 13.2043 340.776 14.122Q343.399 15.0398 346.001 16.0144Q348.602 16.989 351.183 18.02Q353.763 19.0509 356.32 20.1378Q358.877 21.2246 361.41 22.3669Q363.943 23.5091 366.45 24.7061Q368.958 25.9032 371.438 27.1545Q373.919 28.4058 376.372 29.7108Q378.825 31.0157 381.249 32.3737Q383.673 33.7318 386.067 35.1422Q388.461 36.5526 390.824 38.0148Q393.186 39.477 395.517 40.9902Q397.847 42.5034 400.144 44.067Q402.441 45.6305 404.703 47.2437Q406.965 48.8568 409.192 50.5188Q411.418 52.1808 413.608 53.8908Q415.798 55.6008 417.951 57.3581Q420.103 59.1153 422.216 60.919Q424.33 62.7226 426.404 64.5718Q428.477 66.421 430.51 68.3149Q432.544 70.2088 434.535 72.1464Q436.526 74.0841 438.475 76.0646Q440.424 78.0451 442.329 80.0675Q444.234 82.09 446.095 84.1533Q447.956 86.2168 449.771 88.3201Q451.587 90.4235 453.356 92.5659Q455.88 95.5972 458.31 98.7053Q460.739 101.813 463.071 104.995Q465.403 108.177 467.635 111.43Q469.868 114.682 471.998 118.002Q474.128 121.322 476.155 124.707Q478.182 128.091 480.102 131.537Q482.023 134.983 483.836 138.486Q485.649 141.99 487.353 145.548Q489.057 149.106 490.65 152.715Q492.242 156.324 493.723 159.98Q495.203 163.637 496.569 167.338Q497.935 171.038 499.186 174.78Q500.437 178.521 501.571 182.299Q502.706 186.077 503.723 189.889Q504.74 193.7 505.638 197.542Q506.536 201.383 507.315 205.25C508.98 213.574 510.022 221.972 510.959 230.4C511.33 233.733 510.935 237.732 512 240.899L512 270.907C511.975 270.985 511.947 271.063 511.924 271.141C511.089 273.907 511.257 277.371 511.072 280.265Q510.824 283.822 510.352 287.356Q508.329 304.828 503.753 321.81Q502.911 324.957 501.989 328.082Q501.067 331.207 500.066 334.307Q499.065 337.408 497.986 340.482Q496.907 343.556 495.751 346.602Q494.594 349.648 493.361 352.663Q492.128 355.679 490.819 358.662Q489.509 361.646 488.125 364.595Q486.74 367.544 485.282 370.457Q483.823 373.37 482.291 376.246Q480.759 379.121 479.155 381.957Q477.551 384.792 475.875 387.586Q474.199 390.38 472.454 393.131Q470.708 395.882 468.893 398.588Q467.078 401.293 465.195 403.952Q463.312 406.611 461.362 409.221Q459.413 411.831 457.398 414.391Q455.382 416.951 453.303 419.46Q451.224 421.968 449.082 424.422Q446.939 426.877 444.736 429.277Q442.532 431.676 440.268 434.019Q438.004 436.362 435.682 438.647Q433.36 440.932 430.98 443.158Q428.601 445.383 426.166 447.548Q423.73 449.712 421.241 451.814Q418.752 453.916 416.211 455.954Q413.669 457.993 411.077 459.966Q408.484 461.939 405.843 463.846Q403.201 465.753 400.512 467.593Q397.823 469.432 395.088 471.203Q392.354 472.974 389.575 474.675Q386.796 476.376 383.975 478.006Q381.154 479.636 378.293 481.194Q373.65 483.726 368.904 486.061Q364.159 488.397 359.321 490.533Q354.483 492.668 349.559 494.6Q344.636 496.532 339.636 498.256Q334.636 499.981 329.569 501.495Q324.502 503.01 319.376 504.312Q314.25 505.613 309.074 506.7Q303.898 507.786 298.681 508.656Q290.541 509.947 282.346 510.824C279.148 511.157 274.805 510.914 271.87 512L240.399 512C238.46 511.165 226.899 510.498 223.945 510.109Q214.461 508.906 205.091 507.013Q201.131 506.221 197.198 505.304Q193.265 504.387 189.363 503.346Q185.462 502.304 181.595 501.139Q177.728 499.974 173.901 498.687Q170.073 497.399 166.288 495.991Q162.503 494.582 158.765 493.054Q155.027 491.526 151.339 489.88Q147.652 488.234 144.018 486.471Q140.385 484.709 136.809 482.832Q133.233 480.955 129.719 478.965Q126.205 476.975 122.756 474.875Q119.307 472.774 115.926 470.565Q112.545 468.356 109.237 466.04Q105.928 463.725 102.695 461.305Q99.4613 458.886 96.3064 456.365Q93.1516 453.844 90.0784 451.224Q87.9576 449.425 85.8763 447.58Q83.795 445.735 81.7542 443.845Q79.7135 441.956 77.7143 440.022Q75.7151 438.089 73.7583 436.112Q71.8016 434.136 69.8882 432.117Q67.9748 430.099 66.1057 428.039Q64.2366 425.98 62.4127 423.88Q60.5888 421.78 58.8109 419.642Q57.033 417.503 55.3019 415.326Q53.5709 413.149 51.8875 410.935Q50.2042 408.721 48.5693 406.471Q46.9344 404.221 45.3487 401.936Q43.7631 399.651 42.2274 397.333Q40.6918 395.014 39.2069 392.662Q37.7219 390.31 36.2884 387.927Q34.8549 385.544 33.4735 383.13Q32.092 380.716 30.7634 378.273Q29.4347 375.829 28.1594 373.358Q26.8841 370.886 25.6627 368.387Q24.4414 365.889 23.2746 363.364Q22.1078 360.839 20.9961 358.29Q19.8844 355.74 18.8284 353.167Q17.7723 350.595 16.7723 347.999Q15.7724 345.404 14.829 342.788Q13.8857 340.171 12.9994 337.535Q12.113 334.899 11.2842 332.244Q10.4553 329.589 9.68431 326.917Q8.9133 324.245 8.20049 321.556Q7.48769 318.868 6.83343 316.165Q6.17917 313.462 5.58376 310.745Q4.98836 308.028 4.45209 305.299Q3.91582 302.57 3.43894 299.83C1.77731 290.377 1.10942 281.042 0.293711 271.5C0.625022 266.085 0.253256 260.425 0.254058 254.987C0.254759 250.234 0.649011 245.198 0.271056 240.475C0.903654 235.997 0.922936 231.358 1.37684 226.846C2.13288 219.33 3.39498 211.795 4.91508 204.393Q5.43871 201.863 6.01289 199.344Q6.58706 196.826 7.21154 194.319Q7.83603 191.812 8.51058 189.318Q9.18512 186.824 9.90946 184.345Q10.6338 181.865 11.4076 179.4Q12.1815 176.935 13.0045 174.486Q13.8275 172.038 14.6994 169.606Q15.5713 167.174 16.4917 164.76Q17.4121 162.346 18.3806 159.951Q19.3491 157.556 20.3654 155.181Q21.3817 152.806 22.4454 150.452Q23.509 148.097 24.6195 145.765Q25.7301 143.432 26.8871 141.123Q28.0442 138.813 29.2472 136.527Q30.4502 134.24 31.6988 131.979Q32.9474 129.717 34.241 127.481Q35.5346 125.245 36.8727 123.035Q38.2108 120.825 39.5929 118.642Q40.9749 116.46 42.4004 114.305Q43.8259 112.151 45.2943 110.025Q46.7626 107.899 48.2732 105.804Q49.7838 103.708 51.3361 101.643Q52.8883 99.5779 54.4816 97.5443Q56.0749 95.5107 57.7086 93.5094Q59.3423 91.5081 61.0157 89.54Q62.6891 87.5718 64.4016 85.6375Q66.1141 83.7033 67.865 81.8037Q69.6158 79.9041 71.4044 78.0399Q73.1929 76.1757 75.0184 74.3477Q76.8439 72.5198 78.7057 70.7287Q80.5674 68.9376 82.4646 67.1842Q84.3619 65.4307 86.2938 63.7156Q89.6296 60.7604 93.0674 57.9247Q96.5053 55.0889 100.041 52.3759Q103.577 49.663 107.206 47.0764Q110.835 44.4897 114.552 42.0325Q118.27 39.5753 122.072 37.2506Q125.875 34.9259 129.756 32.7366Q133.638 30.5473 137.594 28.4961Q141.551 26.445 145.577 24.5344Q149.603 22.6239 153.694 20.8564Q157.785 19.089 161.936 17.4667Q166.087 15.8445 170.292 14.3694Q174.498 12.8944 178.752 11.5685Q183.007 10.2426 187.306 9.06737Q191.604 7.89216 195.942 6.86914Q200.28 5.84611 204.65 4.97653Q209.021 4.10696 213.42 3.39191C220.665 2.1953 227.701 1.29686 235.029 0.855177C236.814 0.747632 238.598 0.410715 240.388 0.513342ZM245.908 116.606C235.937 117.301 226.154 118.368 216.348 120.349C181.603 127.369 147.717 144.335 124.257 171.352C104.747 193.819 94.2568 221.755 96.3586 251.613C98.5297 282.455 115.509 309.898 138.501 329.803C159.768 348.215 187.139 360.803 214.607 366.489Q219.785 367.575 225.013 368.389C229.277 369.04 234.612 368.986 238.501 370.964C241.018 372.245 242.363 374.973 242.612 377.692C242.906 380.897 242.199 384.401 241.834 387.596L240.041 403.069C239.718 405.821 239.128 408.797 239.535 411.558C239.838 413.615 240.763 415.571 242.372 416.925C244.142 418.415 246.659 419.161 248.952 418.86C252.307 418.419 255.62 416.311 258.587 414.78C302.287 393.107 347.152 364.808 379.007 327.539C383.519 322.26 387.584 316.601 391.607 310.946C399.728 299.53 406.183 289.619 410.664 276.274Q411.067 275.063 411.439 273.842Q411.812 272.621 412.154 271.391Q412.496 270.161 412.808 268.924Q413.12 267.686 413.401 266.441Q413.682 265.195 413.932 263.944Q414.183 262.692 414.402 261.435Q414.622 260.177 414.81 258.915Q414.998 257.652 415.155 256.385Q415.312 255.118 415.438 253.848Q415.564 252.578 415.658 251.305Q415.753 250.032 415.816 248.757Q415.879 247.482 415.91 246.206Q415.941 244.93 415.941 243.653Q415.941 242.377 415.91 241.101Q415.878 239.825 415.815 238.55Q415.752 237.275 415.658 236.002Q415.563 234.729 415.437 233.459Q415.312 232.188 415.154 230.922Q414.997 229.655 414.809 228.392Q414.62 227.13 414.401 225.872Q414.181 224.615 413.931 223.363Q413.681 222.111 413.399 220.866Q413.118 219.621 412.806 218.383Q412.494 217.146 412.152 215.916Q411.81 214.686 411.437 213.465Q411.064 212.244 410.662 211.033Q410.259 209.822 409.827 208.621Q409.394 207.42 408.932 206.23Q408.471 205.04 407.979 203.862Q407.488 202.683 406.968 201.518Q406.448 200.352 405.9 199.199Q405.351 198.047 404.774 196.908C387.538 162.252 353.795 138.295 317.714 126.266Q313.388 124.841 309 123.617Q304.613 122.393 300.174 121.372Q295.735 120.351 291.253 119.537Q286.772 118.722 282.258 118.115Q277.744 117.507 273.206 117.109Q268.669 116.71 264.118 116.521Q259.567 116.332 255.012 116.354Q250.457 116.375 245.908 116.606Z"/>
	<path fill="#FEFEFE" d="M258.587 414.78C255.62 416.311 252.307 418.419 248.952 418.86C246.659 419.161 244.142 418.415 242.372 416.925C240.763 415.571 239.838 413.615 239.535 411.558C239.128 408.797 239.718 405.821 240.041 403.069L241.834 387.596C242.199 384.401 242.906 380.897 242.612 377.692C242.363 374.973 241.018 372.245 238.501 370.964C234.612 368.986 229.277 369.04 225.013 368.389Q219.785 367.575 214.607 366.489C187.139 360.803 159.768 348.215 138.501 329.803C115.509 309.898 98.5297 282.455 96.3586 251.613C94.2568 221.755 104.747 193.819 124.257 171.352C147.717 144.335 181.603 127.369 216.348 120.349C226.154 118.368 235.937 117.301 245.908 116.606Q250.457 116.375 255.012 116.354Q259.567 116.332 264.118 116.521Q268.669 116.71 273.206 117.109Q277.744 117.507 282.258 118.115Q286.772 118.722 291.253 119.537Q295.735 120.351 300.174 121.372Q304.613 122.393 309 123.617Q313.388 124.841 317.714 126.266C353.795 138.295 387.538 162.252 404.774 196.908Q405.351 198.047 405.9 199.199Q406.448 200.352 406.968 201.518Q407.488 202.683 407.979 203.862Q408.471 205.04 408.932 206.23Q409.394 207.42 409.827 208.621Q410.259 209.822 410.662 211.033Q411.064 212.244 411.437 213.465Q411.81 214.686 412.152 215.916Q412.494 217.146 412.806 218.383Q413.118 219.621 413.399 220.866Q413.681 222.111 413.931 223.363Q414.181 224.615 414.401 225.872Q414.62 227.13 414.809 228.392Q414.997 229.655 415.154 230.922Q415.312 232.188 415.437 233.459Q415.563 234.729 415.658 236.002Q415.752 237.275 415.815 238.55Q415.878 239.825 415.91 241.101Q415.941 242.377 415.941 243.653Q415.941 244.93 415.91 246.206Q415.879 247.482 415.816 248.757Q415.753 250.032 415.658 251.305Q415.564 252.578 415.438 253.848Q415.312 255.118 415.155 256.385Q414.998 257.652 414.81 258.915Q414.622 260.177 414.402 261.435Q414.183 262.692 413.932 263.944Q413.682 265.195 413.401 266.441Q413.12 267.686 412.808 268.924Q412.496 270.161 412.154 271.391Q411.812 272.621 411.439 273.842Q411.067 275.063 410.664 276.274C406.183 289.619 399.728 299.53 391.607 310.946C387.584 316.601 383.519 322.26 379.007 327.539C347.152 364.808 302.287 393.107 258.587 414.78ZM171.616 207.582C169.271 208.436 167.252 209.701 166.119 212.022C165.553 213.181 165.396 214.254 165.317 215.524C164.779 224.223 165.235 233.77 165.231 242.564C165.225 253.856 164.829 265.301 165.271 276.577C165.323 277.91 165.346 279.312 165.847 280.566C166.568 282.369 168.029 284.109 169.865 284.803C171.155 285.291 172.519 285.55 173.891 285.665C179.445 286.129 185.311 285.759 190.894 285.752C196.444 285.746 202.616 286.262 208.094 285.435C210.521 284.614 212.303 283.366 213.457 281.008Q213.638 280.64 213.782 280.255Q213.925 279.871 214.029 279.474Q214.134 279.077 214.197 278.671Q214.261 278.266 214.283 277.856Q214.306 277.446 214.287 277.036Q214.268 276.626 214.208 276.22Q214.148 275.814 214.047 275.416Q213.946 275.018 213.806 274.632C213.05 272.552 211.514 270.953 209.488 270.07C206.058 268.575 186.878 269.266 181.538 269.259L181.561 231.887C181.564 226.856 182.103 218.248 181.245 213.57C180.982 212.136 180.256 210.861 179.216 209.846C177.567 208.239 175.179 207.391 172.893 207.493Q172.254 207.525 171.616 207.582ZM227.52 207.56C225.616 208.104 223.925 208.951 222.93 210.753C222.272 211.943 222.214 213.4 222.137 214.733C221.916 218.508 222.044 222.35 222.042 226.133L222.039 245.321L222.048 266.288C222.051 270.061 221.923 273.889 222.113 277.656C222.185 279.085 222.307 280.965 222.807 282.307C223.28 283.578 224.813 284.661 226.038 285.129C228.268 285.98 230.879 285.743 233.215 285.548C235.124 285.072 236.622 284.165 237.644 282.437C238.176 281.538 238.359 280.702 238.438 279.663C238.73 275.776 238.534 271.749 238.535 267.849L238.538 245.971L238.533 225.917C238.532 221.213 238.695 216.479 238.206 211.798C238.091 210.698 236.985 209.605 236.143 208.961C233.664 207.067 230.441 207.463 227.52 207.56ZM257.585 207.572C255.042 208.364 252.91 209.679 251.66 212.124C251.068 213.282 250.886 214.307 250.807 215.598C250.55 219.833 250.717 224.154 250.717 228.4L250.719 251.039L250.724 268.09C250.725 271.805 250.561 275.576 251.005 279.27C251.226 281.104 252.454 282.772 253.88 283.891Q254.199 284.143 254.541 284.363Q254.883 284.582 255.245 284.767Q255.607 284.952 255.985 285.1Q256.364 285.248 256.755 285.358Q257.146 285.468 257.546 285.539Q257.946 285.61 258.352 285.641Q258.757 285.673 259.163 285.664Q259.57 285.655 259.973 285.606Q260.375 285.555 260.769 285.462Q261.163 285.37 261.546 285.237Q261.929 285.105 262.296 284.933Q262.663 284.762 263.01 284.554Q263.357 284.346 263.682 284.103Q264.006 283.86 264.303 283.586Q264.601 283.311 264.868 283.007Q265.136 282.703 265.371 282.373C266.313 281.066 266.791 279.539 267 277.955C267.567 273.665 267.109 268.935 267.09 264.588L267.042 239.832L289.626 269.075C292.84 273.23 297.65 280.269 301.179 283.621C302.316 284.701 303.679 285.393 305.245 285.576C306.186 285.685 307.087 285.608 308.013 285.439C310.381 284.62 312.278 283.416 313.455 281.129C314.134 279.81 314.451 278.307 314.533 276.833C314.698 273.866 314.524 270.824 314.509 267.848L314.508 251.339C314.514 239.879 314.918 228.276 314.513 216.836C314.468 215.59 314.404 214.227 314.017 213.039C313.352 210.999 311.686 209.284 309.739 208.423Q309.367 208.255 308.981 208.126Q308.595 207.996 308.197 207.906Q307.8 207.815 307.395 207.765Q306.99 207.715 306.583 207.706Q306.175 207.696 305.769 207.728Q305.363 207.759 304.961 207.831Q304.56 207.903 304.168 208.014Q303.776 208.126 303.397 208.276C301.264 209.139 299.521 210.822 298.718 212.999C297.561 216.13 298.276 247.315 298.155 253.444C294.918 249.976 292.115 245.746 289.222 241.973L272.476 220.139C269.868 216.724 267.291 212.469 264.082 209.636C262.619 208.345 260.977 207.575 259.004 207.522C258.531 207.509 258.057 207.54 257.585 207.572ZM334.006 207.57C331.55 208.096 329.584 209.095 328.222 211.287C327.317 212.742 326.922 214.41 326.799 216.103C326.36 222.117 326.833 228.378 326.818 234.421L326.77 261.213C326.767 266.371 326.119 275.581 327.411 280.229C327.959 282.2 329.371 283.724 331.172 284.661C332.108 285.148 333.058 285.443 334.105 285.549C338.398 285.985 368.32 286.057 371.346 285.064C373.344 284.409 374.976 282.509 375.799 280.634C376.635 278.729 376.78 276.442 375.938 274.513C374.975 272.311 373.325 270.607 371.024 269.836C367.238 268.569 348.595 269.332 343.254 269.255L343.276 259.688L343.28 254.751Q350.721 254.715 358.162 254.765C361.877 254.79 366.178 255.232 369.811 254.407C371.23 254.085 372.466 253.41 373.499 252.381C375.046 250.839 376.016 248.649 375.953 246.452Q375.939 246.033 375.883 245.618Q375.827 245.203 375.73 244.795Q375.633 244.387 375.496 243.991Q375.36 243.595 375.184 243.215Q375.009 242.834 374.797 242.473Q374.585 242.112 374.338 241.773Q374.091 241.435 373.811 241.122Q373.532 240.81 373.223 240.527C372.082 239.494 370.793 238.969 369.292 238.69C366.33 238.139 363.083 238.397 360.073 238.402Q351.666 238.454 343.258 238.416L343.276 223.922Q350.938 223.789 358.6 223.844C362.366 223.854 367.207 224.408 370.857 223.364C372.121 223.002 373.251 222.192 374.135 221.234C375.577 219.669 376.589 217.435 376.481 215.278C376.377 213.213 374.855 210.56 373.278 209.268C372.104 208.305 370.784 207.895 369.301 207.683C364.845 207.048 359.773 207.496 355.252 207.502C348.196 207.512 341.051 207.291 334.006 207.57Z"/>
	<path fill="#36CE00" d="M208.094 285.435C202.616 286.262 196.444 285.746 190.894 285.752C185.311 285.759 179.445 286.129 173.891 285.665C172.519 285.55 171.155 285.291 169.865 284.803C168.029 284.109 166.568 282.369 165.847 280.566C165.346 279.312 165.323 277.91 165.271 276.577C164.829 265.301 165.225 253.856 165.231 242.564C165.235 233.77 164.779 224.223 165.317 215.524C165.396 214.254 165.553 213.181 166.119 212.022C167.252 209.701 169.271 208.436 171.616 207.582Q172.254 207.525 172.893 207.493C175.179 207.391 177.567 208.239 179.216 209.846C180.256 210.861 180.982 212.136 181.245 213.57C182.103 218.248 181.564 226.856 181.561 231.887L181.538 269.259C186.878 269.266 206.058 268.575 209.488 270.07C211.514 270.953 213.05 272.552 213.806 274.632Q213.946 275.018 214.047 275.416Q214.147 275.814 214.208 276.22Q214.268 276.626 214.287 277.036Q214.306 277.446 214.283 277.856Q214.261 278.266 214.197 278.671Q214.134 279.077 214.029 279.474Q213.925 279.871 213.782 280.255Q213.638 280.64 213.457 281.008C212.303 283.366 210.521 284.614 208.094 285.435Z"/>
	<path fill="#36CE00" d="M233.215 285.548C230.879 285.743 228.268 285.98 226.038 285.129C224.813 284.661 223.28 283.578 222.807 282.307C222.307 280.965 222.185 279.085 222.113 277.656C221.923 273.889 222.051 270.061 222.048 266.288L222.039 245.321L222.042 226.133C222.044 222.35 221.916 218.508 222.137 214.733C222.214 213.4 222.272 211.943 222.93 210.753C223.925 208.951 225.616 208.104 227.52 207.56C230.441 207.463 233.664 207.067 236.143 208.961C236.985 209.605 238.091 210.698 238.206 211.798C238.695 216.479 238.532 221.213 238.533 225.917L238.538 245.971L238.535 267.849C238.534 271.749 238.73 275.776 238.438 279.663C238.359 280.702 238.176 281.538 237.644 282.437C236.622 284.165 235.124 285.072 233.215 285.548Z"/>
	<path fill="#36CE00" d="M267.042 239.832L267.09 264.588C267.109 268.935 267.567 273.665 267 277.955C266.791 279.539 266.313 281.066 265.371 282.373Q265.136 282.703 264.868 283.007Q264.601 283.311 264.303 283.586Q264.006 283.86 263.682 284.103Q263.357 284.346 263.01 284.554Q262.663 284.762 262.296 284.933Q261.929 285.105 261.546 285.237Q261.163 285.37 260.769 285.462Q260.375 285.555 259.973 285.606Q259.57 285.655 259.163 285.664Q258.757 285.673 258.352 285.641Q257.946 285.61 257.546 285.539Q257.146 285.468 256.755 285.358Q256.364 285.248 255.985 285.1Q255.607 284.952 255.245 284.767Q254.883 284.582 254.541 284.363Q254.199 284.143 253.88 283.891C252.454 282.772 251.226 281.104 251.005 279.27C250.561 275.576 250.725 271.805 250.724 268.09L250.719 251.039L250.717 228.4C250.717 224.154 250.55 219.833 250.807 215.598C250.886 214.307 251.068 213.282 251.66 212.124C252.91 209.679 255.042 208.364 257.585 207.572C258.057 207.54 258.531 207.509 259.004 207.522C260.977 207.575 262.619 208.345 264.082 209.636C267.291 212.469 269.868 216.724 272.476 220.139L289.222 241.973C292.115 245.746 294.918 249.976 298.155 253.444C298.276 247.315 297.561 216.13 298.718 212.999C299.521 210.822 301.264 209.139 303.397 208.276Q303.776 208.126 304.168 208.014Q304.56 207.903 304.961 207.831Q305.363 207.759 305.769 207.728Q306.175 207.696 306.583 207.706Q306.99 207.715 307.395 207.765Q307.8 207.815 308.197 207.906Q308.595 207.996 308.981 208.126Q309.367 208.255 309.739 208.423C311.686 209.284 313.352 210.999 314.017 213.039C314.404 214.227 314.468 215.59 314.513 216.836C314.918 228.276 314.514 239.879 314.508 251.339L314.509 267.848C314.524 270.824 314.698 273.866 314.533 276.833C314.451 278.307 314.134 279.81 313.455 281.129C312.278 283.416 310.381 284.62 308.013 285.439C307.087 285.608 306.186 285.685 305.245 285.576C303.679 285.393 302.316 284.701 301.179 283.621C297.65 280.269 292.84 273.23 289.626 269.075L267.042 239.832Z"/>
	<path fill="#36CE00" d="M343.254 269.255C348.595 269.332 367.238 268.569 371.024 269.836C373.325 270.607 374.975 272.311 375.938 274.513C376.78 276.442 376.635 278.729 375.799 280.634C374.976 282.509 373.344 284.409 371.346 285.064C368.32 286.057 338.398 285.985 334.105 285.549C333.058 285.443 332.108 285.148 331.172 284.661C329.371 283.724 327.959 282.2 327.411 280.229C326.119 275.581 326.767 266.371 326.77 261.213L326.818 234.421C326.833 228.378 326.36 222.117 326.799 216.103C326.922 214.41 327.317 212.742 328.222 211.287C329.584 209.095 331.55 208.096 334.006 207.57C341.051 207.291 348.196 207.512 355.252 207.502C359.773 207.496 364.845 207.048 369.301 207.683C370.784 207.895 372.104 208.305 373.278 209.268C374.855 210.56 376.377 213.213 376.481 215.278C376.589 217.435 375.577 219.669 374.135 221.234C373.251 222.192 372.121 223.002 370.857 223.364C367.207 224.408 362.366 223.854 358.6 223.844Q350.938 223.789 343.276 223.922L343.258 238.416Q351.666 238.454 360.073 238.402C363.083 238.397 366.33 238.139 369.292 238.69C370.793 238.969 372.082 239.494 373.223 240.527Q373.532 240.81 373.811 241.122Q374.091 241.435 374.338 241.773Q374.585 242.112 374.797 242.473Q375.009 242.834 375.184 243.215Q375.36 243.595 375.496 243.991Q375.633 244.387 375.73 244.795Q375.827 245.203 375.883 245.618Q375.939 246.033 375.953 246.452C376.016 248.649 375.046 250.839 373.499 252.381C372.466 253.41 371.23 254.085 369.811 254.407C366.178 255.232 361.877 254.79 358.162 254.765Q350.721 254.715 343.28 254.751L343.276 259.688L343.254 269.255Z"/>
	<path fill="#36CE00" fill-opacity="0.98823529" d="M0 240.392L0.271056 240.475C0.649011 245.198 0.254759 250.234 0.254058 254.987C0.253256 260.425 0.625022 266.085 0.293711 271.5L0 271.414L0 240.392Z"/>
</svg>
